<svg width="68" height="97" fill="none" xmlns="http://www.w3.org/2000/svg"><g clip-path="url(#a)"><path d="M64.97.505H2.33A2.325 2.325 0 0 0 0 2.83v91.378a2.325 2.325 0 0 0 2.33 2.325h62.64c1.288 0 2.33-1.04 2.33-2.325V2.83A2.335 2.335 0 0 0 64.97.505Z" fill="url(#b)"/><path d="M60.858 4.646H6.434a2.271 2.271 0 0 0-2.268 2.271v75.55a2.264 2.264 0 0 0 2.268 2.264h54.424a2.264 2.264 0 0 0 2.268-2.263V6.918a2.266 2.266 0 0 0-2.268-2.272Z" fill="#fff"/><path d="M44.774 40.566H22.526a1.842 1.842 0 0 1-1.844-1.84V16.518c0-1.016.825-1.84 1.844-1.84h22.248c1.018 0 1.843.824 1.843 1.84V38.72a1.848 1.848 0 0 1-1.843 1.847Z" fill="url(#c)"/><path d="M33.65 94.046a3.422 3.422 0 0 0 3.425-3.418 3.422 3.422 0 0 0-3.425-3.418 3.422 3.422 0 0 0-3.425 3.418 3.422 3.422 0 0 0 3.425 3.418Z" fill="#fff"/><path d="M53.036 52.068h-38.78c-.98 0-1.782-.801-1.782-1.779 0-.977.802-1.778 1.782-1.778h38.772c.98 0 1.782.8 1.782 1.778a1.78 1.78 0 0 1-1.774 1.779Z" fill="url(#d)"/><path opacity=".6" d="M46.47 61.921H13.609a1.126 1.126 0 0 1-1.126-1.124v-.123c0-.623.509-1.124 1.126-1.124h32.863c.625 0 1.126.508 1.126 1.124v.123a1.121 1.121 0 0 1-1.126 1.124Z" fill="url(#e)"/><path opacity=".3" d="M40.215 68.18H13.5a1.03 1.03 0 0 1-1.026-1.024v-.339a1.03 1.03 0 0 1 1.026-1.023h26.707a1.03 1.03 0 0 1 1.026 1.023v.339c0 .562-.463 1.024-1.018 1.024Z" fill="url(#f)"/><path opacity=".6" d="M43.578 73.977H13.562c-.594 0-1.08-.485-1.08-1.078v-.216c0-.592.486-1.077 1.08-1.077h30.016c.594 0 1.08.485 1.08 1.077v.216c0 .585-.486 1.078-1.08 1.078Z" fill="url(#g)"/><path d="M33.717 26.906c2.227 0 4.033-1.826 4.033-4.079 0-2.252-1.806-4.079-4.033-4.079-2.228 0-4.034 1.827-4.034 4.08 0 2.252 1.797 4.078 4.034 4.078Zm0 2.04c-2.692 0-8.067 1.365-8.067 4.078v1.024c0 .563.456 1.024 1.013 1.024h14.125c.556 0 1.012-.46 1.012-1.024v-1.024c-.017-2.705-5.392-4.079-8.083-4.079Z" fill="#fff"/></g><defs><linearGradient id="b" x1="4.077" y1="46.018" x2="67.354" y2="51.385" gradientUnits="userSpaceOnUse"><stop stop-color="#6CBCFC"/><stop offset="1" stop-color="#458DFC"/></linearGradient><linearGradient id="c" x1="18.671" y1="20.004" x2="48.599" y2="35.285" gradientUnits="userSpaceOnUse"><stop stop-color="#B0F4FF"/><stop offset=".086" stop-color="#A3F0FE"/><stop offset=".297" stop-color="#8AE7FD"/><stop offset=".516" stop-color="#77E1FD"/><stop offset=".745" stop-color="#6DDDFC"/><stop offset="1" stop-color="#69DCFC"/></linearGradient><linearGradient id="d" x1="54.814" y1="50.291" x2="12.481" y2="50.291" gradientUnits="userSpaceOnUse"><stop stop-color="#6CBCFC"/><stop offset="1" stop-color="#458DFC"/></linearGradient><linearGradient id="e" x1="47.603" y1="60.732" x2="12.481" y2="60.732" gradientUnits="userSpaceOnUse"><stop stop-color="#6CBCFC"/><stop offset="1" stop-color="#458DFC"/></linearGradient><linearGradient id="f" x1="41.234" y1="66.991" x2="12.481" y2="66.991" gradientUnits="userSpaceOnUse"><stop stop-color="#6CBCFC"/><stop offset="1" stop-color="#458DFC"/></linearGradient><linearGradient id="g" x1="44.657" y1="72.785" x2="12.481" y2="72.785" gradientUnits="userSpaceOnUse"><stop stop-color="#6CBCFC"/><stop offset="1" stop-color="#458DFC"/></linearGradient><clipPath id="a"><path fill="#fff" transform="translate(0 .505)" d="M0 0h67.292v96.02H0z"/></clipPath></defs></svg>