<svg width="68" height="97" fill="none" xmlns="http://www.w3.org/2000/svg"><g clip-path="url(#a)"><path d="M67.71 92.112c0 2.506-2.006 4.542-4.485 4.542l-58.005.067c-1.973 0-3.648-1.282-4.253-3.067a4.48 4.48 0 0 1-.24-1.458L.634 7.648c0-2.506 2.007-4.542 4.486-4.542l53.262-.059 4.742-.008c2.48 0 4.494 2.028 4.494 4.534l.091 84.539Z" fill="url(#b)"/><path d="m61.7 91.626-54.963.059c-1.334 0-2.412-1.09-2.412-2.439l-.083-78.682c0-1.349 1.078-2.438 2.413-2.438l54.953-.059c1.335 0 2.413 1.09 2.413 2.439l.083 78.681a2.416 2.416 0 0 1-2.404 2.439Z" fill="#fff"/><path d="m53.98 14.553-40.087.05a2.426 2.426 0 0 1-2.413-2.43l-.008-6.754c0-1.34 1.078-2.439 2.404-2.439l40.096-.042a2.426 2.426 0 0 1 2.413 2.43l.008 6.755c-.008 1.341-1.086 2.43-2.413 2.43ZM13.876 4.221c-.647 0-1.177.536-1.177 1.19l.008 6.754c0 .654.53 1.19 1.177 1.19l40.096-.042c.647 0 1.178-.536 1.178-1.19l-.009-6.754c0-.654-.53-1.19-1.177-1.19l-40.096.042Z" fill="url(#c)"/><path d="m52.844 5.863-37.434.042a.747.747 0 0 1-.746-.754V1.489c0-.42.331-.754.746-.754L52.836.693c.415 0 .746.335.746.754v3.662a.735.735 0 0 1-.738.754Z" fill="url(#d)"/><path d="m15.443 5.905 37.368-.042c.431 0 .78-.352.78-.788V3.282l-38.935.042v1.793a.79.79 0 0 0 .787.788ZM28.576 82.776 25.343 63l-2.62 8.607-7.495.008a.822.822 0 0 1-.821-.83c0-.46.364-.83.82-.83l6.293-.008 4.32-14.17 3.234 19.827 4.195-13.618 2.23 6.453 5.025-12.31 4.883 19.525 1.841-6.21 5.39-.008c.455 0 .82.369.82.83 0 .46-.365.83-.82.83l-4.171.008-3.192 10.768-5.124-20.48-4.784 11.706-2.015-5.824-4.776 15.504Z" fill="#58D6F4"/><path d="m23.021 44.647-10.538.008c-1.7 0-3.092-1.4-3.092-3.117l-.017-14.892c0-1.718 1.385-3.126 3.084-3.126l10.538-.008c1.7 0 3.093 1.4 3.093 3.117l.017 14.892c0 1.718-1.385 3.117-3.085 3.126ZM12.45 24.425c-1.21 0-2.189.997-2.189 2.221l.017 14.892c0 1.223.986 2.212 2.197 2.212l10.538-.008c1.21 0 2.189-.998 2.189-2.221l-.017-14.892a2.206 2.206 0 0 0-2.197-2.212l-10.538.008Z" fill="url(#e)"/><path d="M17.74 41.789c4.983-.008 6.533-2.916 6.533-2.916a3.631 3.631 0 0 0-.887-.788c-1.31-.863-2.363-1.232-2.802-1.6-.448-.361-.697-.889-.697-.889l-.273.168s-.166-.579-.075-1.459c0 0 .39-.1.68-1.432.464.092 1.011-1.098.754-1.534-.165-.285-.364-.26-.505-.193.14-.595.779-3.888-2.736-3.888-3.516 0-2.878 3.293-2.728 3.888-.141-.067-.34-.092-.506.193-.257.436.298 1.626.763 1.534.29 1.332.688 1.424.688 1.424.1.872-.075 1.458-.075 1.458l-.273-.167s-.25.52-.697.888c-.447.369-1.492.746-2.802 1.609-.382.251-.672.503-.887.788-.009.017 1.55 2.924 6.525 2.916Z" fill="url(#f)"/><path d="m50.556 28.263-20.288.026a.69.69 0 0 1-.689-.696v-.117a.69.69 0 0 1 .689-.696l20.288-.025a.69.69 0 0 1 .688.696v.117a.695.695 0 0 1-.688.695Z" fill="url(#g)"/><path d="m43.094 32.169-12.826.016a.69.69 0 0 1-.689-.695v-.117a.69.69 0 0 1 .689-.696l12.826-.017a.69.69 0 0 1 .688.696v.117a.69.69 0 0 1-.688.696Z" fill="url(#h)"/><path opacity=".6" d="m57.554 36.811-27.278.034a.69.69 0 0 1-.688-.696v-.117a.69.69 0 0 1 .688-.696l27.278-.033a.69.69 0 0 1 .688.695v.118a.7.7 0 0 1-.688.695Z" fill="url(#i)"/><path opacity=".6" d="m56.965 49.86-45.502.05a.717.717 0 0 1-.713-.721v-.067c0-.394.315-.721.713-.721l45.502-.05c.39 0 .713.318.713.72v.067c0 .403-.323.721-.713.721Z" fill="url(#j)"/><path opacity=".6" d="m57.554 41.37-27.278.034a.69.69 0 0 1-.688-.696v-.117a.69.69 0 0 1 .688-.696l27.278-.033a.69.69 0 0 1 .688.695v.117a.69.69 0 0 1-.688.696Z" fill="url(#k)"/></g><defs><linearGradient id="b" x1="-8.654" y1="35.814" x2="77.172" y2="63.404" gradientUnits="userSpaceOnUse"><stop stop-color="#6CBCFC"/><stop offset=".171" stop-color="#5EABFC"/><stop offset=".408" stop-color="#509AFC"/><stop offset=".67" stop-color="#4890FC"/><stop offset="1" stop-color="#458DFC"/></linearGradient><linearGradient id="c" x1="-4.59" y1="-20.912" x2="56.63" y2="8.257" gradientUnits="userSpaceOnUse"><stop stop-color="#CFE9FF"/><stop offset="1" stop-color="#A1D6FB"/></linearGradient><linearGradient id="d" x1="14.654" y1="3.3" x2="53.59" y2="3.3" gradientUnits="userSpaceOnUse"><stop stop-color="#B0F4FF"/><stop offset="1" stop-color="#69DCFC"/></linearGradient><linearGradient id="e" x1="14.77" y1="30.214" x2="24.682" y2="42.873" gradientUnits="userSpaceOnUse"><stop stop-color="#6CBCFC"/><stop offset="1" stop-color="#458DFC"/></linearGradient><linearGradient id="f" x1="13.709" y1="31.044" x2="23.621" y2="43.703" gradientUnits="userSpaceOnUse"><stop stop-color="#B0F4FF"/><stop offset=".099" stop-color="#A1EFFE"/><stop offset=".299" stop-color="#88E7FD"/><stop offset=".509" stop-color="#77E1FD"/><stop offset=".734" stop-color="#6CDDFC"/><stop offset="1" stop-color="#69DCFC"/></linearGradient><linearGradient id="g" x1="29.581" y1="27.529" x2="51.24" y2="27.541" gradientUnits="userSpaceOnUse"><stop stop-color="#6CBCFC"/><stop offset="1" stop-color="#458DFC"/></linearGradient><linearGradient id="h" x1="29.585" y1="31.423" x2="43.781" y2="31.423" gradientUnits="userSpaceOnUse"><stop stop-color="#6CBCFC"/><stop offset="1" stop-color="#458DFC"/></linearGradient><linearGradient id="i" x1="29.589" y1="36.078" x2="58.237" y2="36.078" gradientUnits="userSpaceOnUse"><stop stop-color="#6CBCFC"/><stop offset="1" stop-color="#458DFC"/></linearGradient><linearGradient id="j" x1="10.75" y1="49.135" x2="57.676" y2="49.135" gradientUnits="userSpaceOnUse"><stop stop-color="#6CBCFC"/><stop offset="1" stop-color="#458DFC"/></linearGradient><linearGradient id="k" x1="29.594" y1="40.636" x2="58.242" y2="40.636" gradientUnits="userSpaceOnUse"><stop stop-color="#6CBCFC"/><stop offset="1" stop-color="#458DFC"/></linearGradient><clipPath id="a"><path fill="#fff" transform="translate(.635 .693)" d="M0 0h67.075v96.02H0z"/></clipPath></defs></svg>