<svg width="80" height="73" fill="none" xmlns="http://www.w3.org/2000/svg"><g clip-path="url(#a)"><path d="M66.475 14.993H13.258v57.73h53.218v-57.73Z" fill="url(#b)"/><path d="M13.038 14.994c.064 0 .129.027.22.055v57.647c-4.12.324-7.597-.724-10.359-3.413C.945 67.373 0 65.128 0 62.587V35.61c0-3.43-.01-6.862-.01-10.294 0-4.145 2.212-7.159 6.277-9.2 2.092-1.038 4.413-1.196 6.771-1.121Z" fill="url(#c)"/><path d="M57.18 14.984h4.983v57.72H17.571V15.004h5.294V14.4c0-2.068.01-4.146-.01-6.214-.018-1.446.368-2.708 1.487-3.69.79-.687 1.698-1.04 2.725-1.04 3.184-.008 6.359-.008 9.543-.008 5.349 0 10.707.009 16.057 0 1.403 0 2.569.463 3.486 1.539.734.862 1.01 1.873 1.01 3.005-.01 2.18 0 4.358 0 6.538-.01.12 0 .26.018.454Zm-28.571 0h8.157c4.734 0 9.478 0 14.212.01.377 0 .46-.121.46-.483-.02-1.623 0-3.246 0-4.869 0-.13-.02-.26-.038-.398H28.61v5.74Z" fill="#fff"/><mask id="d" style="mask-type:alpha" maskUnits="userSpaceOnUse" x="17" y="3" width="46" height="70"><path d="M57.18 14.984h4.983v57.72H17.571V15.004h5.294V14.4c0-2.068.01-4.146-.01-6.214-.018-1.446.368-2.708 1.487-3.69.79-.687 1.698-1.04 2.725-1.04 3.184-.008 6.359-.008 9.543-.008 5.349 0 10.707.009 16.057 0 1.403 0 2.569.463 3.486 1.539.734.862 1.01 1.873 1.01 3.005-.01 2.18 0 4.358 0 6.538-.01.12 0 .26.018.454Zm-28.571 0h8.157c4.734 0 9.478 0 14.212.01.377 0 .46-.121.46-.483-.02-1.623 0-3.246 0-4.869 0-.13-.02-.26-.038-.398H28.61v5.74Z" fill="#F7F9FC"/></mask><g mask="url(#d)"><path d="M58.096.832H21v14.17h37.096V.833Z" fill="url(#e)"/></g><path d="M80 25.167c0-3.82-2.064-6.668-5.735-8.736-2.257-1.27-4.817-1.512-7.44-1.456-.404.01-.35.223-.35.445v20.022c0 11.732 0 23.454-.009 35.186v2.086c1.652.056 3.22.065 4.762-.306 5.212-1.243 8.763-5.165 8.763-9.793.018-12.473.009-24.965.009-37.448Z" fill="url(#f)"/><path d="M44.216 48.12V55.446c0 .77-.385 1.178-1.138 1.178-2.073.01-4.147.01-6.22 0-.689 0-1.074-.436-1.074-1.169V48.12h-7.166c-.89 0-1.257-.362-1.257-1.261v-5.982c0-.909.358-1.27 1.248-1.27h7.166v-7.29c0-.853.376-1.224 1.22-1.224h5.918c.927 0 1.285.352 1.285 1.308.009 2.281 0 4.553 0 6.834v.38h.394c2.276 0 4.551 0 6.827.01.835 0 1.193.371 1.193 1.215v6.01c0 .917-.35 1.27-1.24 1.27-2.266 0-4.532 0-6.789.01-.092-.01-.202-.01-.367-.01Z" fill="url(#g)"/></g><defs><linearGradient id="b" x1="13.26" y1="43.855" x2="66.473" y2="43.855" gradientUnits="userSpaceOnUse"><stop stop-color="#B0F4FF"/><stop offset="1" stop-color="#69DCFC"/></linearGradient><linearGradient id="c" x1="0" y1="43.864" x2="13.26" y2="43.864" gradientUnits="userSpaceOnUse"><stop stop-color="#6CBCFC"/><stop offset="1" stop-color="#458DFC"/></linearGradient><linearGradient id="e" x1="20.996" y1="7.916" x2="58.094" y2="7.916" gradientUnits="userSpaceOnUse"><stop stop-color="#6CBCFC"/><stop offset="1" stop-color="#458DFC"/></linearGradient><linearGradient id="f" x1="66.469" y1="43.858" x2="80.001" y2="43.858" gradientUnits="userSpaceOnUse"><stop stop-color="#6CBCFC"/><stop offset="1" stop-color="#458DFC"/></linearGradient><linearGradient id="g" x1="27.367" y1="43.868" x2="52.63" y2="43.868" gradientUnits="userSpaceOnUse"><stop stop-color="#6CBCFC"/><stop offset="1" stop-color="#458DFC"/></linearGradient><clipPath id="a"><path fill="#fff" transform="translate(0 .832)" d="M0 0h80v71.919H0z"/></clipPath></defs></svg>