<svg width="92" height="92" fill="none" xmlns="http://www.w3.org/2000/svg"><g clip-path="url(#a)"><path d="m56.216 44.36-9.078 8.758L8.803 90.097a5.147 5.147 0 0 1-7.44-.27c-2.024-2.256-1.76-5.786.568-7.712l45.207-37.237 4.98-4.1 4.098 3.582Z" fill="url(#b)"/><path d="m46.741 53.563-8.935 8.613-.824-8.85 4.89-4.028 4.87 4.265Z" fill="#3A81D6" fill-opacity=".8"/><path d="M91.978 30.809c0 16.698-13.296 30.24-29.683 30.24-10.329 0-19.427-5.374-24.743-13.531-3.121-4.783-4.94-10.529-4.94-16.71C32.611 14.11 45.907.58 62.294.58c7.4 0 14.16 2.754 19.355 7.309 6.323 5.548 10.328 13.758 10.328 22.92Z" fill="url(#c)"/><path d="M62.295 54.36c12.772 0 23.126-10.544 23.126-23.551 0-13.007-10.354-23.552-23.126-23.552-12.773 0-23.127 10.545-23.127 23.552S49.522 54.36 62.295 54.36Z" fill="#fff"/><path opacity=".06" d="M91.978 30.809c0 16.698-13.296 30.24-29.683 30.24-10.329 0-19.427-5.374-24.743-13.531C71.027 44.743 79.85 15.86 81.66 7.888c6.313 5.55 10.318 13.759 10.318 22.92Z" fill="#1A6FB5" fill-opacity=".5"/><path d="M62.295 30.86c2.683 0 4.859-2.215 4.859-4.948 0-2.733-2.176-4.948-4.86-4.948-2.683 0-4.859 2.215-4.859 4.948 0 2.733 2.166 4.949 4.86 4.949Zm0 2.475c-3.243 0-9.719 1.656-9.719 4.948v1.242c0 .684.55 1.243 1.22 1.243h17.017c.671 0 1.22-.56 1.22-1.242v-1.243c-.02-3.282-6.496-4.948-9.738-4.948Z" fill="url(#d)"/></g><defs><linearGradient id="b" x1="5.675" y1="85.812" x2="54.386" y2="42.328" gradientUnits="userSpaceOnUse"><stop stop-color="#67C3F3"/><stop offset="1" stop-color="#5A98F2"/></linearGradient><linearGradient id="c" x1="50.017" y1="2.716" x2="73.19" y2="53.868" gradientUnits="userSpaceOnUse"><stop stop-color="#67C3F3"/><stop offset="1" stop-color="#5A98F2"/></linearGradient><linearGradient id="d" x1="55.269" y1="29.279" x2="72.991" y2="37.767" gradientUnits="userSpaceOnUse"><stop stop-color="#B0F4FF"/><stop offset=".071" stop-color="#A6F1FF"/><stop offset=".294" stop-color="#8BE8FD"/><stop offset=".521" stop-color="#78E1FD"/><stop offset=".754" stop-color="#6DDDFC"/><stop offset="1" stop-color="#69DCFC"/></linearGradient><clipPath id="a"><path fill="#fff" transform="translate(0 .58)" d="M0 0h91.978v90.966H0z"/></clipPath></defs></svg>