<svg width="62" height="87" fill="none" xmlns="http://www.w3.org/2000/svg"><g clip-path="url(#a)"><path d="m61.857 27.43-.191 40.229-.032 7.78c-.032 6.184-5.846 11.172-13.001 11.14l-35.744-.162C5.749 86.37-.031 81.332 0 75.133l.224-48.009C.24 22.12 4.073 17.89 9.31 16.486l.016-2.583v-1.324l43.554.21-.016 3.907c5.223 1.469 9.008 5.714 8.992 10.735Z" fill="url(#b)"/><path d="M56.124 2.458v.355l-.032 4.197-.032 4.116v.5c0 .776-.64 1.405-1.406 1.405h-.335l-2.108-.016L49.895 13l-2.108-.016-2.316-.016-2.14-.033-2.316-.016-2.109-.016-2.331-.016-2.125-.016-2.316-.016-2.108-.033-2.316-.016-2.108-.016-2.332-.016-2.124-.016-2.3-.016-2.108-.016-2.316-.017-2.124-.016-2.316-.016-2.124-.016h-.335c-.767 0-1.39-.646-1.39-1.42v-.372l.064-8.297v-.5c0-.776.639-1.405 1.421-1.405h.336l4.44.032 4.44.032 2.124.016 2.316.017 2.108.016 4.424.048 2.316.016L32.23.86l2.316.017 2.108.016 2.316.016 2.109.016 2.315.016 2.109.016L47.85.99l2.109.016 2.316.016 2.124.016h.335c.783.016 1.39.646 1.39 1.42Z" fill="url(#c)"/><path d="m56.124 2.829-.032 4.18-.032 4.117-1.9-.016-2.524-.016-2.316-.016h-2.54l-2.316-.016-2.523-.016-2.316-.016h-2.54l-2.315-.017-2.54-.016-2.3-.016h-2.539l-2.316-.016-2.54-.016-2.315-.016h-2.524l-2.316-.017-2.539-.016-2.316-.016H8.002l-1.869-.016.064-8.297 4.44.016 4.84.032 2.315.016 2.54.016h2.316l4.839.033 2.54.016h2.315l2.54.016 2.3.016 2.539.016h2.316l2.54.016 2.3.016 2.539.017h2.316l2.539.016 1.853.016Z" fill="url(#d)"/><path d="M61.81 35.925.178 35.63l-.13 27.62 61.634.295.13-27.62Z" fill="#F7F9FC"/><path d="M61.822 35.924.188 35.63l-.024 4.972 61.634.294.023-4.972Z" fill="#FBFCF7"/><path d="m24.213 46.736-3.977-.017.016-4.035-5.478-.017-.016 4.02-3.977-.016-.032 5.52 3.977.017-.016 4.036 5.478.016.016-4.02 3.977.016.032-5.52Z" fill="url(#e)"/><path d="m51.236 48.075-19.708-.096a.966.966 0 0 1-.959-.969v-.452c0-.533.432-.969.959-.969l19.708.097c.527 0 .959.436.959.969v.452a.966.966 0 0 1-.959.968Z" fill="url(#f)"/><path opacity=".5" d="m51.22 54-19.708-.097a.966.966 0 0 1-.959-.968v-.453c0-.532.432-.968.959-.968l19.708.097c.528 0 .959.436.959.968v.452a.966.966 0 0 1-.959.969Z" fill="url(#g)"/><path opacity=".08" d="M6.133 2.458v.355l.032 4.197.032 4.1v.5c0 .776.639 1.405 1.405 1.405h.336L10.062 13l2.316-.016 2.108-.016 2.316-.017 2.108-.016 2.316-.016 2.108-.016 2.316-.016 2.124-.016 2.316-.016 2.108-.016 2.316-.017 2.108-.016 2.316-.016 2.125-.016 2.315-.016 2.109-.016 2.316-.016 2.108-.017 2.316-.016 2.124-.016h.335c.767 0 1.39-.646 1.39-1.42v-.372C31.368 11.966 7.523 1.037 7.523 1.037a1.423 1.423 0 0 0-1.39 1.42Z" fill="#1A6FB5"/></g><defs><linearGradient id="b" x1="0" y1="12.121" x2="57.942" y2="91.241" gradientUnits="userSpaceOnUse"><stop stop-color="#6CBCFC"/><stop offset="1" stop-color="#458DFC"/></linearGradient><linearGradient id="c" x1="-629.93" y1="-39.694" x2="-27.543" y2="1.818" gradientUnits="userSpaceOnUse"><stop stop-color="#B0F4FF"/><stop offset=".053" stop-color="#A9F2FF"/><stop offset=".288" stop-color="#8DE8FE"/><stop offset=".525" stop-color="#79E1FD"/><stop offset=".762" stop-color="#6DDDFC"/><stop offset="1" stop-color="#69DCFC"/></linearGradient><linearGradient id="d" x1="6.14" y1="6.845" x2="56.126" y2="6.845" gradientUnits="userSpaceOnUse"><stop stop-color="#B0F4FF"/><stop offset=".053" stop-color="#A9F2FF"/><stop offset=".288" stop-color="#8DE8FE"/><stop offset=".525" stop-color="#79E1FD"/><stop offset=".762" stop-color="#6DDDFC"/><stop offset="1" stop-color="#69DCFC"/></linearGradient><linearGradient id="e" x1="21.978" y1="44.224" x2="12.483" y2="55.057" gradientUnits="userSpaceOnUse"><stop stop-color="#6CBCFC"/><stop offset="1" stop-color="#458DFC"/></linearGradient><linearGradient id="f" x1="52.385" y1="46.827" x2="28.887" y2="46.827" gradientUnits="userSpaceOnUse"><stop stop-color="#6CBCFC"/><stop offset="1" stop-color="#458DFC"/></linearGradient><linearGradient id="g" x1="30.552" y1="52.751" x2="52.179" y2="52.751" gradientUnits="userSpaceOnUse"><stop stop-color="#6CBCFC"/><stop offset="1" stop-color="#458DFC"/></linearGradient><clipPath id="a"><path fill="#fff" transform="translate(0 .666)" d="M0 0h61.857v85.913H0z"/></clipPath></defs></svg>