<svg width="78" height="105" fill="none" xmlns="http://www.w3.org/2000/svg"><g clip-path="url(#a)" filter="url(#b)"><path d="M73.422 5.114v87.323c0 2.41-1.926 4.356-4.31 4.356H8.31C5.926 96.777 4 94.83 4 92.437V5.114C4 2.704 5.926.757 8.31.757h60.818c2.368 0 4.294 1.947 4.294 4.357Z" fill="url(#c)"/><path d="M69 8.79v79.955c0 2.207-1.692 3.99-3.787 3.99H11.787C9.693 92.72 8 90.936 8 88.744V8.79C8 6.583 9.693 4.8 11.787 4.8h53.44C67.306 4.8 69 6.583 69 8.79Z" fill="url(#d)"/><path d="M30.872 19.205v3.973c0 .287-.22.51-.505.51h-4.816a.501.501 0 0 0-.505.512v4.867c0 .287-.22.51-.505.51H20.61a.501.501 0 0 1-.506-.51V24.2a.501.501 0 0 0-.505-.511h-4.8a.501.501 0 0 1-.505-.51v-3.974c0-.288.221-.511.505-.511h4.816a.502.502 0 0 0 .505-.51v-4.868c0-.287.221-.51.505-.51h3.932c.284 0 .505.223.505.51v4.867c0 .288.221.511.505.511h4.8c.284 0 .505.223.505.51Z" fill="url(#e)"/><path opacity=".5" d="M62.576 40.86h-47.73a.57.57 0 0 1-.568-.575V38.45a.57.57 0 0 1 .569-.574h47.729a.57.57 0 0 1 .568.574v1.835c-.016.32-.252.575-.568.575Z" fill="url(#f)"/><path d="M62.576 17.992H38.893a.57.57 0 0 1-.569-.575v-1.819a.57.57 0 0 1 .569-.574h23.683a.57.57 0 0 1 .568.574v1.835a.576.576 0 0 1-.568.559Z" fill="url(#g)"/><path opacity=".5" d="M55.566 25.747H38.893a.57.57 0 0 1-.569-.574v-1.835a.57.57 0 0 1 .569-.575h16.673c.315 0 .568.256.568.575v1.835c-.016.32-.253.575-.568.575Z" fill="url(#h)"/><path opacity=".5" d="M62.576 49.573h-47.73a.57.57 0 0 1-.568-.575v-1.835a.57.57 0 0 1 .569-.574h47.729a.57.57 0 0 1 .568.574V49c-.016.319-.252.574-.568.574Z" fill="url(#i)"/><path opacity=".5" d="M62.576 58.286h-47.73a.57.57 0 0 1-.568-.574v-1.836a.57.57 0 0 1 .569-.574h47.729a.57.57 0 0 1 .568.575v1.85a.576.576 0 0 1-.568.56Z" fill="url(#j)"/><path opacity=".5" d="M62.576 67.015h-47.73a.57.57 0 0 1-.568-.574v-1.835a.57.57 0 0 1 .569-.575h47.729a.57.57 0 0 1 .568.575v1.835c-.016.319-.252.574-.568.574Z" fill="url(#k)"/><path opacity=".5" d="M62.576 75.728h-47.73a.57.57 0 0 1-.568-.574v-1.835a.57.57 0 0 1 .569-.575h47.729a.57.57 0 0 1 .568.575v1.835c-.016.319-.252.574-.568.574Z" fill="url(#l)"/><path opacity=".5" d="M62.576 84.442h-47.73a.57.57 0 0 1-.568-.575v-1.835a.57.57 0 0 1 .569-.575h47.729a.57.57 0 0 1 .568.575v1.835c-.016.32-.252.575-.568.575Z" fill="url(#m)"/><path opacity=".1" d="M73.422 5.114v87.323c0 2.41-1.926 4.356-4.31 4.356H8.31C5.926 96.777 4 94.83 4 92.437V90.92C41.087 75.44 58.36 16.077 62.26.757h6.852c2.384 0 4.31 1.947 4.31 4.357Z" fill="#1A6FB5" fill-opacity=".4"/></g><defs><linearGradient id="c" x1="99" y1="128.11" x2="-3.361" y2="-3.746" gradientUnits="userSpaceOnUse"><stop offset=".306" stop-color="#5BA7FC"/><stop offset="1" stop-color="#69B8FC"/></linearGradient><linearGradient id="d" x1="12.624" y1="7.878" x2="62.652" y2="79.126" gradientUnits="userSpaceOnUse"><stop offset=".306" stop-color="#fff"/><stop offset="1" stop-color="#fff"/></linearGradient><linearGradient id="e" x1="14" y1="10.359" x2="29.234" y2="34.977" gradientUnits="userSpaceOnUse"><stop stop-color="#B0F4FF"/><stop offset=".369" stop-color="#80E4FD"/><stop offset="1" stop-color="#6CDDFC"/></linearGradient><linearGradient id="f" x1="14.291" y1="39.374" x2="63.136" y2="39.374" gradientUnits="userSpaceOnUse"><stop stop-color="#6CBCFC"/><stop offset="1" stop-color="#458DFC"/></linearGradient><linearGradient id="g" x1="38.325" y1="16.509" x2="63.136" y2="16.509" gradientUnits="userSpaceOnUse"><stop stop-color="#6CBCFC"/><stop offset="1" stop-color="#458DFC"/></linearGradient><linearGradient id="h" x1="38.325" y1="24.268" x2="56.126" y2="24.268" gradientUnits="userSpaceOnUse"><stop stop-color="#6CBCFC"/><stop offset="1" stop-color="#458DFC"/></linearGradient><linearGradient id="i" x1="14.291" y1="48.092" x2="63.136" y2="48.092" gradientUnits="userSpaceOnUse"><stop stop-color="#6CBCFC"/><stop offset="1" stop-color="#458DFC"/></linearGradient><linearGradient id="j" x1="14.291" y1="56.809" x2="63.136" y2="56.809" gradientUnits="userSpaceOnUse"><stop stop-color="#6CBCFC"/><stop offset="1" stop-color="#458DFC"/></linearGradient><linearGradient id="k" x1="14.291" y1="65.526" x2="63.136" y2="65.526" gradientUnits="userSpaceOnUse"><stop stop-color="#6CBCFC"/><stop offset="1" stop-color="#458DFC"/></linearGradient><linearGradient id="l" x1="14.291" y1="74.243" x2="63.136" y2="74.243" gradientUnits="userSpaceOnUse"><stop stop-color="#6CBCFC"/><stop offset="1" stop-color="#458DFC"/></linearGradient><linearGradient id="m" x1="14.291" y1="82.96" x2="63.136" y2="82.96" gradientUnits="userSpaceOnUse"><stop stop-color="#6CBCFC"/><stop offset="1" stop-color="#458DFC"/></linearGradient><clipPath id="a"><path fill="#fff" transform="translate(4 .757)" d="M0 0h69.422v96.02H0z"/></clipPath><filter id="b" x="0" y=".757" width="77.422" height="104.02" filterUnits="userSpaceOnUse" color-interpolation-filters="sRGB"><feFlood flood-opacity="0" result="BackgroundImageFix"/><feColorMatrix in="SourceAlpha" values="0 0 0 0 0 0 0 0 0 0 0 0 0 0 0 0 0 0 127 0" result="hardAlpha"/><feOffset dy="4"/><feGaussianBlur stdDeviation="2"/><feComposite in2="hardAlpha" operator="out"/><feColorMatrix values="0 0 0 0 0 0 0 0 0 0 0 0 0 0 0 0 0 0 0.25 0"/><feBlend in2="BackgroundImageFix" result="effect1_dropShadow_42_1"/><feBlend in="SourceGraphic" in2="effect1_dropShadow_42_1" result="shape"/></filter></defs></svg>